<svg width="1280" height="1280" viewBox="0 0 1280 1280" fill="none" xmlns="http://www.w3.org/2000/svg">
  <defs>
    <linearGradient id="survey-bg" x1="0" y1="0" x2="1" y2="1">
      <stop offset="0" stop-color="#5366C9"/>
      <stop offset="1" stop-color="#3D4FA6"/>
    </linearGradient>
  </defs>
  <rect width="1280" height="1280" fill="#FFFFFF"/>
  <g transform="translate(0,320)">
    <rect x="1" y="1" width="1278" height="638" fill="#FFFFFF" stroke="#E7E7E7" stroke-width="2"/>
    <rect x="0" y="0" width="1280" height="6" fill="#4F61C4"/>

    <!-- Survey logo：蓝靛圆角方 + 白文档 + 放大镜（origin 96,212 size168） -->
    <g transform="translate(96,212) scale(0.84)">
      <rect x="0" y="0" width="200" height="200" rx="44" fill="url(#survey-bg)"/>
      <rect x="50" y="38" width="66" height="92" rx="10" fill="#FFFFFF"/>
      <rect x="62" y="58" width="42" height="6" rx="3" fill="#C8D0EC"/>
      <rect x="62" y="73" width="42" height="6" rx="3" fill="#C8D0EC"/>
      <rect x="62" y="88" width="28" height="6" rx="3" fill="#C8D0EC"/>
      <circle cx="128" cy="118" r="29" fill="#3D4FA6"/>
      <circle cx="128" cy="118" r="29" fill="none" stroke="#FFFFFF" stroke-width="9"/>
      <line x1="149" y1="139" x2="170" y2="160" stroke="#FFFFFF" stroke-width="13" stroke-linecap="round"/>
    </g>

    <g font-family="'Inter','PingFang SC','Microsoft YaHei',system-ui,-apple-system,sans-serif">
      <text x="312" y="268" font-size="96" font-weight="700" fill="#262626" letter-spacing="-1">Aham Survey</text>
      <text x="316" y="332" font-size="40" font-weight="500" fill="#6E6E6E">现场调研工具 · macOS</text>
      <text x="316" y="382" font-size="26" font-weight="400" fill="#9B9B9B">项目制调研 · 行业模板 · 本地语音 · AI 追问与报告</text>
    </g>

    <g transform="translate(96,456)">
      <rect width="38" height="38" rx="8" fill="#5366C9"/>
      <rect x="50" width="38" height="38" rx="8" fill="#3D4FA6"/>
      <rect x="100" width="38" height="38" rx="8" fill="#F3F3F3"/>
      <rect x="150" width="38" height="38" rx="8" fill="#E7E7E7"/>
      <rect x="200" width="38" height="38" rx="8" fill="#262626"/>
    </g>

    <g font-family="'Inter','PingFang SC','Microsoft YaHei',system-ui,sans-serif">
      <text x="98" y="560" font-size="26" font-weight="400" fill="#6E6E6E">把灵光一现，做成能用的 AI 工具。</text>
      <text x="1182" y="560" font-size="26" font-weight="600" fill="#4F61C4" text-anchor="end">macOS</text>
    </g>
  </g>
</svg>
