<svg width="1280" height="640" viewBox="0 0 1280 640" xmlns="http://www.w3.org/2000/svg"><rect x="0" y="0" width="1280" height="640" fill="#FFFFFF"/><rect x="1" y="1" width="1278" height="638" fill="none" stroke="#E7E7E7" stroke-width="2"/><rect x="0" y="0" width="1280" height="6" fill="#336EE8"/><g transform="translate(96,212)"><rect width="168" height="168" rx="42" fill="#336EE8"/><rect x="32" y="34" width="74" height="96" rx="9" fill="#FFFFFF"/><rect x="46" y="56" width="46" height="6" rx="3" fill="#336EE8"/><rect x="46" y="74" width="46" height="6" rx="3" fill="#336EE8"/><rect x="46" y="92" width="46" height="6" rx="3" fill="#336EE8"/><circle cx="108" cy="108" r="24" fill="none" stroke="#FFFFFF" stroke-width="10"/><line x1="125" y1="125" x2="141" y2="141" stroke="#FFFFFF" stroke-width="10" stroke-linecap="round"/></g><text x="312" y="268" font-family="'Inter','PingFang SC','Microsoft YaHei',system-ui,-apple-system,sans-serif" font-size="96" font-weight="700" letter-spacing="-1" fill="#262626">Aham Survey</text><text x="316" y="332" font-family="'Inter','PingFang SC','Microsoft YaHei',system-ui,-apple-system,sans-serif" font-size="40" font-weight="500" fill="#6E6E6E">现场调研工具 · macOS</text><text x="316" y="382" font-family="'Inter','PingFang SC','Microsoft YaHei',system-ui,-apple-system,sans-serif" font-size="26" fill="#9B9B9B">项目制调研 · 行业模板 · 本地语音 · AI 追问</text><g transform="translate(96,456)"><rect x="0" y="0" width="38" height="38" rx="8" fill="#336EE8"/><rect x="50" y="0" width="38" height="38" rx="8" fill="#FFFFFF"/><rect x="50" y="0" width="38" height="38" rx="8" fill="none" stroke="#E7E7E7" stroke-width="1.5"/><rect x="100" y="0" width="38" height="38" rx="8" fill="#F3F3F3"/><rect x="150" y="0" width="38" height="38" rx="8" fill="#E7E7E7"/><rect x="200" y="0" width="38" height="38" rx="8" fill="#262626"/></g><text x="98" y="560" font-family="'Inter','PingFang SC','Microsoft YaHei',system-ui,-apple-system,sans-serif" font-size="26" fill="#6E6E6E">把灵光一现，做成能用的 AI 工具。</text><text x="1182" y="560" font-family="'Inter','PingFang SC','Microsoft YaHei',system-ui,-apple-system,sans-serif" font-size="26" font-weight="700" text-anchor="end" fill="#336EE8">macOS App</text></svg>